<?xml version="1.0" standalone="yes"?>
<svg width="4167" height="5396">
<path style="fill:#ffffff; stroke:none;" d="M0 0L0 5396L4167 5396L4167 0L0 0z"/>
<path style="fill:#d6c8ba; stroke:none;" d="M2471 967C2480.56 980.565 2493.28 984.147 2507 991.876C2519.23 998.766 2529.09 1009.22 2541 1016.16C2550.44 1021.66 2562.25 1022.51 2572 1028.35C2581.95 1034.31 2595.51 1054.02 2599.3 1065C2601.24 1070.62 2602.26 1079.18 2601.1 1085C2600.02 1090.36 2599.01 1097.29 2596.15 1102C2579.97 1128.64 2547.7 1119.21 2526 1135.43C2510.71 1146.86 2515.12 1160.48 2513.91 1177C2513.39 1184.04 2510.68 1190.85 2511.09 1198C2511.42 1203.65 2512.45 1212.21 2515.59 1217C2520.98 1225.22 2530.94 1229.58 2535.99 1238C2539.28 1243.48 2539.97 1251.74 2540.71 1258C2541.61 1265.63 2533.2 1282.4 2539.32 1288.1C2551.6 1299.53 2566.25 1294.32 2581 1295.04C2588.04 1295.38 2595.69 1299.06 2602 1302.05C2609.47 1305.6 2613.51 1313.46 2618.03 1320C2625.82 1331.31 2634.28 1342.33 2641.52 1354C2650.26 1368.09 2631.77 1384.76 2626.94 1396C2624.52 1401.62 2627.18 1410.22 2628.26 1416C2629.58 1423.09 2630.8 1433.79 2634.85 1439.83C2643.49 1452.7 2658.79 1461.2 2668.79 1473C2673.88 1479.01 2676.05 1487.23 2680 1494C2693 1490.31 2708.27 1487.56 2720 1480.61C2733.47 1472.63 2744.06 1460.02 2758 1452.31C2768.94 1446.26 2789.58 1441.52 2795.97 1429.83C2799.82 1422.78 2790.98 1404.66 2791.03 1396C2791.13 1376.74 2807.75 1361.85 2822 1351.59C2842.67 1336.72 2868.24 1330.89 2891 1320.11C2910.91 1310.69 2928.22 1296.05 2948 1286.37C2962.94 1279.06 2976.51 1277.52 2989.98 1266.49C3003.29 1255.58 3008.05 1236.38 3022 1225.39C3035.31 1214.91 3058.87 1214.2 3068.93 1199.79C3078.92 1185.48 3053.98 1168.4 3073.11 1157.16C3085.92 1149.64 3105.08 1152.12 3119 1146.87C3125.26 1144.51 3130.19 1139.53 3136 1136.31C3153.87 1126.44 3171.55 1116.46 3192 1113.48C3201.33 1112.12 3206.5 1122.49 3215 1122.81C3223.49 1123.12 3234.31 1114.2 3242 1111C3235.03 1093.16 3199.04 1090.05 3183 1092.42C3172.68 1093.95 3160.87 1097.52 3152.1 1089.73C3134.22 1073.82 3127.77 1034.74 3127.04 1012C3126.83 1005.3 3134.38 991.495 3131.87 986.326C3127.41 977.16 3103.88 975.548 3095 973.576C3058.19 965.401 3021.93 954.618 2985 947L2985 984C2985 989.19 2983.84 996.059 2985.6 1001C2989.73 1012.56 3006.34 1017.35 2997.84 1031.83C2989.05 1046.77 2965.72 1048.44 2951 1046.27C2941.86 1044.92 2933.52 1040.41 2925 1037C2896.01 1025.4 2869.71 1007.81 2855.25 979C2850.41 969.359 2832.84 954.315 2838.2 942.093C2840.3 937.292 2848.55 932.997 2853 930.63C2866.79 923.304 2881.21 917.342 2895 910L2895 908C2880.51 896.96 2883.46 887.855 2892 874C2883.76 872.493 2875.92 874.384 2868 876.637C2864.56 877.615 2860.49 880.108 2857.21 877.577C2850.46 872.36 2846.66 857.57 2842.74 850C2832.67 830.556 2817.29 812.912 2804.72 795C2799.4 787.416 2789.57 776.897 2780 775.105C2726.93 765.163 2666.61 781.176 2630.21 823.015C2619.84 834.936 2614.87 851.872 2608.41 866C2604.43 874.69 2586.77 879.284 2586.85 888.958C2586.89 893.943 2595.76 897.168 2599 900.104C2609.85 909.946 2620.52 921.631 2628.32 934C2630.73 937.825 2639.1 946.943 2635.38 951.501C2633.67 953.592 2630.4 954.434 2628 955.399C2608.07 963.407 2609.27 940.647 2597.49 930.563C2592.84 926.586 2583.92 924.966 2578 925.005C2556.45 925.148 2547.91 941.275 2531 951.387C2514.64 961.172 2489.79 965.466 2471 967z"/>
<path style="fill:#ffffff; stroke:none;" d="M2763 861.818C2750.53 865.998 2741.82 875.416 2731 882.185C2717.21 890.816 2700.26 897.466 2688.01 908.21C2677.32 917.594 2671.89 928.688 2665.56 941C2661.7 948.515 2649.15 959.88 2650.43 969C2651.11 973.908 2656.77 978.606 2660 982C2668.47 990.906 2687.05 1003.16 2690.58 1015C2692.75 1022.28 2694.7 1031.47 2693.39 1039C2691.96 1047.13 2686.73 1058.88 2688.68 1067C2693.86 1088.64 2712.55 1101.69 2728 1115.29C2739.26 1125.21 2747.28 1138.71 2760 1147.15C2771.94 1155.07 2800.67 1156.34 2814 1151.76C2833.83 1144.94 2852.04 1121.36 2861.74 1103C2864.18 1098.38 2871.03 1088.51 2869.2 1083.17C2864.45 1069.26 2840.58 1068.11 2835.6 1055.9C2829.31 1040.44 2842.96 1024.02 2840.44 1009C2837.78 993.113 2826.65 988.17 2818.73 975.996C2813.58 968.082 2812.65 955.107 2810.37 946C2806.86 931.942 2796.51 918.984 2794.21 905C2792.9 897.015 2797.36 882.548 2793.38 876C2788.49 867.932 2772.79 858.539 2763 861.818z"/>
<path style="fill:#d6c8ba; stroke:none;" d="M2765 870.678C2753.88 873.292 2746.17 882.623 2737 888.56C2711.29 905.202 2688.13 914.074 2674.22 943C2670.88 949.939 2659.52 959.859 2660.73 968C2661.43 972.754 2666.73 976.614 2669.71 980C2678.69 990.178 2695.02 999.368 2698.62 1013C2700.54 1020.29 2703.26 1029.42 2702.45 1037C2701.49 1045.98 2695.76 1056.98 2697.73 1066C2701.85 1084.88 2719.54 1096.74 2733 1108.3C2744.08 1117.82 2751.8 1130.97 2764 1139.35C2774.22 1146.37 2797.23 1147.4 2809 1144.39C2828.02 1139.52 2838.85 1119.69 2850.18 1105C2853.3 1100.97 2861.07 1090.51 2858.84 1085.09C2853.61 1072.36 2829.6 1071.9 2826.32 1059C2822.04 1042.16 2834.37 1025.87 2831.61 1010C2829.08 995.447 2817.77 991.394 2810.85 980C2805.9 971.842 2804.93 959.22 2802.63 950C2798.95 935.311 2789.33 922.53 2786.12 908C2784.32 899.846 2788.11 886.912 2784.93 880.001C2782.14 873.922 2771.5 869.148 2765 870.678z"/>
<path style="fill:#ffffff; stroke:none;" d="M2810.15 909.176C2805.86 911.004 2808.62 917.628 2812.85 915.824C2817.14 913.995 2814.38 907.372 2810.15 909.176z"/>
<path style="fill:#d6c8ba; stroke:none;" d="M2901 915.761C2895.64 917.082 2890.81 922.06 2886 924.688C2877.35 929.411 2867.87 932.517 2859 936.784C2855.14 938.639 2848.08 941.52 2846.89 946.093C2844.49 955.357 2857.91 966.381 2861.75 974C2876.87 1003.94 2902.24 1018.73 2932 1031.01C2942.87 1035.5 2956.85 1042.15 2969 1039.06C2975.76 1037.34 2988.48 1033.36 2990.83 1025.96C2993.37 1017.99 2981.39 1011.21 2977.93 1005C2972.72 995.624 2975.05 974.477 2976.29 964C2976.82 959.474 2979.01 949.638 2975.97 945.728C2973.47 942.505 2965.74 942.062 2962 941.126C2949.62 938.033 2936.95 935.473 2925 930.936C2917.94 928.255 2907.79 914.087 2901 915.761M2124 1171C2138.68 1174.87 2156.88 1170.95 2172 1169.91C2177.23 1169.55 2182.83 1167.98 2188 1169.7C2202.37 1174.49 2210.82 1186.01 2216.69 1199C2219.4 1204.98 2221.79 1214.99 2227.21 1219.01C2236.89 1226.16 2250.93 1227.59 2262 1231.55C2269.6 1234.26 2276.25 1239.01 2284 1241.41C2292.54 1244.06 2304.2 1246.08 2310.99 1252.13C2315.69 1256.33 2324.53 1264.55 2325.6 1271C2326.69 1277.6 2321.67 1284.3 2322.24 1291C2322.71 1296.58 2330.07 1303.1 2334.42 1306.15C2342.29 1311.65 2353.77 1311.15 2362 1316.25C2372.57 1322.78 2381.8 1336.81 2393 1341.11C2402.3 1344.67 2414.77 1338.93 2423 1343.03C2436.21 1349.61 2439.79 1366.01 2449.39 1375.61C2458.3 1384.52 2472.53 1386.65 2480.68 1397.04C2485.33 1402.97 2483.33 1412.97 2484.44 1420C2485.96 1429.64 2490.07 1439.22 2490.62 1449C2491.15 1458.33 2486.61 1475.57 2482.6 1484C2478.28 1493.08 2465.42 1502.87 2464.7 1513C2463.46 1530.59 2482.95 1539.61 2496 1547.45C2501.13 1550.53 2506.25 1554.71 2512 1556.54C2519.04 1558.78 2527.22 1558.11 2534 1561.08C2543.51 1565.25 2551.78 1573.3 2561 1578.31C2570.03 1583.21 2584.24 1595.5 2594.91 1595.3C2600.83 1595.18 2608.77 1588.18 2615 1586.61C2620.4 1585.25 2624.77 1587.77 2630 1587.6C2639.11 1587.32 2647.49 1579.74 2649.46 1571C2651.85 1560.41 2643.49 1542.46 2640.87 1532C2639.87 1528 2637.16 1522.04 2639.07 1518.04C2641.86 1512.17 2650.87 1507.8 2656 1504.14C2660.75 1500.75 2665.15 1497.88 2671 1497C2667.71 1478.56 2651.51 1467.37 2639 1455C2634.27 1450.33 2628.1 1446.49 2625.76 1440C2621.96 1429.4 2613.74 1405.99 2617.61 1395C2621.89 1382.83 2635.83 1375.12 2634.54 1360C2634.11 1355.02 2629.03 1350 2626.33 1346C2619.2 1335.44 2612.37 1323.9 2604.24 1314.1C2591.56 1298.83 2571.32 1306.44 2555 1304.89C2547.49 1304.18 2537.05 1297.43 2531.11 1292.9C2525.74 1288.79 2528.55 1281.66 2529.61 1276C2531.7 1264.86 2534.63 1252.79 2528.84 1242.01C2523.5 1232.09 2508.92 1227.53 2505.98 1216C2502.07 1200.7 2504.36 1190.22 2505.83 1175C2506.69 1166.1 2503.51 1154.43 2506.6 1146C2508.73 1140.21 2515.56 1134.18 2520 1130.05C2541.31 1110.25 2582.81 1123.94 2591.37 1089C2592.36 1085 2593.17 1081.15 2592.91 1077C2592.52 1070.92 2591.06 1066.06 2587.66 1061C2582.97 1054.05 2578.44 1046.6 2573.24 1040.04C2563.6 1027.88 2546.23 1030.57 2535 1021.88C2524.81 1013.99 2515.37 1005.81 2504 999.515C2495.96 995.061 2486.67 992.309 2479.01 987.186C2472.48 982.814 2468.35 972.303 2460.83 969.644C2457.37 968.42 2452.47 970.629 2449 971.249C2439.66 972.916 2430.34 974.686 2421 976.245C2393.66 980.811 2364.9 985.055 2340 998.168C2322.25 1007.51 2308.61 1024.08 2290 1031.67C2266.23 1041.37 2237.31 1044.39 2215 1057.08C2184.16 1074.63 2160.64 1109.61 2142.42 1139C2136.45 1148.64 2126.6 1159.94 2124 1171z"/>
<path style="fill:#ebe4dd; stroke:none;" d="M2984 973L2984 998L2985 998L2984 973z"/>
<path style="fill:#d6c8ba; stroke:none;" d="M2647 1520C2649.81 1540.9 2670.42 1575.59 2645.96 1590.64C2634.02 1597.98 2613.82 1589.3 2605.07 1600.42C2597.04 1610.64 2590.07 1635.12 2588.68 1648C2587.81 1656.11 2592.41 1664.17 2588.2 1672C2570.84 1704.31 2538.34 1723.08 2517.05 1752C2509.41 1762.39 2503.54 1779.61 2500 1792C2523.35 1795.45 2505.72 1816.93 2515.53 1831.72C2518.73 1836.54 2527.93 1835.86 2533 1837.46C2545.5 1841.41 2555.4 1854.98 2568 1857.54C2587.42 1861.5 2602.49 1840.46 2623 1846.51C2638.12 1850.98 2649.42 1868.9 2663 1876.64C2689.63 1891.82 2720.07 1895.08 2749 1903.77C2762.02 1907.68 2775.19 1916.83 2789 1917C2805.06 1917.19 2815.19 1914.78 2825.5 1900.99C2835.07 1888.18 2833.91 1867.18 2856 1870.08C2863.8 1871.1 2872.36 1878.62 2879 1882.6C2896.28 1892.97 2913.3 1904.13 2931 1913.76C2943.27 1920.43 2961.37 1919.47 2975 1922C2974.27 1913.89 2980.53 1909.34 2982.48 1902C2985.88 1889.23 2983.94 1875.79 2987.92 1863C2990.48 1854.81 2997.8 1847.71 2998.75 1839C3000.22 1825.44 2991.92 1807.41 3000.39 1795C3008.01 1783.85 3019.96 1768.67 3031 1760.9C3040.24 1754.41 3055.38 1750.12 3061.36 1740C3065.06 1733.73 3059.11 1726.28 3056.24 1721C3052.61 1714.32 3050.56 1705.47 3052.1 1698C3054.8 1684.86 3071.7 1686.55 3077.57 1676.61C3084.59 1664.7 3079.96 1639.81 3074.59 1628C3072.35 1623.06 3063.9 1613.64 3065.44 1608.04C3068.64 1596.43 3088.86 1595.7 3098 1594L3098 1593C3087.99 1591.73 3080.65 1590.13 3072 1584.68C3065.44 1580.55 3056.6 1576.97 3051.61 1570.9C3037.15 1553.3 3032.61 1530.24 3036.33 1508C3038.61 1494.34 3043.93 1484.54 3041.2 1470C3033.54 1429.28 3023.85 1391.85 3029.29 1350C3031.9 1329.88 3036.83 1306.15 3046.13 1288C3058.66 1263.53 3078.26 1243.12 3095.58 1222C3115.83 1197.29 3134.73 1170.09 3161 1151.3C3173.67 1142.24 3190.62 1134.99 3205 1129L3205 1127C3183.42 1115.52 3155.82 1133.45 3137 1145.06C3130.37 1149.16 3124.76 1154.44 3117 1156.21C3107.05 1158.48 3096.98 1160.09 3087 1162.21C3082.5 1163.17 3077.58 1163.54 3075.3 1168.06C3071.36 1175.85 3080.6 1180.1 3082.06 1187C3083.06 1191.7 3078.53 1200.11 3076.01 1203.96C3065.03 1220.67 3040.45 1220.57 3026.04 1232.39C3014.52 1241.84 3009.16 1256.48 3000.21 1267.91C2994.96 1274.62 2985.29 1280.53 2978 1284.87C2969.2 1290.1 2958.11 1290.47 2949 1295.13C2928.83 1305.46 2910.86 1320.64 2890 1329.57C2868.75 1338.68 2844.94 1344.97 2826 1358.59C2809.15 1370.72 2799.39 1383.74 2800.02 1405C2800.27 1413.52 2810.04 1427.34 2803.68 1434.82C2792.65 1447.8 2774 1451.94 2760 1460.46C2746.6 1468.62 2735.61 1481.63 2722 1488.95C2705.3 1497.94 2685.54 1499.69 2668 1506.4C2660.27 1509.35 2654.16 1515.92 2647 1520z"/>
<path style="fill:#ebe4dd; stroke:none;" d="M2792 1153L2792 1154L2810 1154L2792 1153z"/>
<path style="fill:#d6c8ba; stroke:none;" d="M2061 1290C2082.54 1297.33 2103.22 1306.7 2125 1313.66C2143 1319.41 2164.57 1324.09 2179 1337.1C2192.19 1349 2209.11 1367.42 2196.91 1385.81C2190.85 1394.95 2177.64 1395.64 2168 1397.43C2159.74 1398.95 2150.41 1402.54 2143.01 1406.53C2130.05 1413.53 2125.4 1430.67 2119.69 1443C2116.46 1449.99 2108.47 1455.77 2111.24 1464C2121.81 1495.33 2135.99 1519.46 2165 1537.07C2186.55 1550.16 2217.94 1555.47 2233.3 1577.09C2246.19 1595.24 2233 1624.08 2230.34 1643C2228.95 1652.88 2236.62 1662.99 2236.87 1673C2237.16 1684.72 2231.18 1699.29 2229 1711C2245.55 1715.66 2257.77 1707.32 2274 1705.18C2292.1 1702.79 2311.62 1707.47 2329 1703.13C2339.69 1700.46 2350.35 1697.69 2361 1694.88C2365.15 1693.79 2370.78 1691.35 2375 1692.98C2382.2 1695.75 2395.14 1706.16 2398.7 1713C2401.47 1718.35 2401.32 1724.9 2404.7 1730C2409.54 1737.3 2416.82 1742.34 2421.4 1750C2429.57 1763.67 2436.98 1775.04 2439 1791C2451.89 1789.37 2465.03 1787.92 2478 1787.09C2481.71 1786.85 2488.36 1789.7 2491.5 1787.88C2494.79 1785.98 2496.05 1779.29 2497.42 1776C2501.47 1766.36 2504.39 1754.05 2511.21 1746C2533.25 1719.99 2565.07 1700.25 2580.44 1669C2583.8 1662.18 2579.2 1654.24 2580.47 1647C2583.07 1632.14 2590.62 1618.6 2594 1604C2570.81 1597.32 2553.17 1579.43 2532 1569.27C2525.29 1566.05 2517.05 1566.88 2510 1564.67C2496.72 1560.51 2483.01 1549.13 2472 1540.87C2467.75 1537.69 2461.77 1534.52 2458.94 1529.91C2447.46 1511.2 2467.48 1497.04 2474.45 1482C2484.08 1461.2 2480.22 1443.23 2476.46 1422C2475.44 1416.22 2476.83 1407.28 2473.97 1402.17C2468.28 1392.01 2453.4 1389.7 2445.09 1382.61C2435.42 1374.35 2432.95 1358.3 2420.96 1352.03C2413 1347.86 2399.38 1351.91 2390 1348.66C2378.53 1344.68 2369.72 1330.25 2359 1323.84C2349.94 1318.41 2337.62 1318.75 2329.09 1312.35C2324.3 1308.76 2314.65 1300.05 2313.6 1294C2312.41 1287.12 2317.29 1279.91 2316.55 1273C2315.99 1267.73 2309.76 1261.57 2305.91 1258.28C2299.46 1252.75 2288.81 1251.81 2281 1248.95C2262.5 1242.17 2241.53 1235.9 2224.02 1226.87C2216.97 1223.23 2215.01 1214.67 2211.76 1208C2205.55 1195.28 2201.48 1185.29 2188 1178.57C2183.72 1176.44 2178.6 1177.93 2174 1178C2160.65 1178.23 2147.39 1181.06 2134 1181C2129.16 1180.98 2120.56 1176.56 2116.9 1180.33C2108.63 1188.85 2104.44 1205.73 2101.75 1217C2100.8 1220.98 2102.05 1226.29 2099.97 1229.86C2095.95 1236.77 2082.39 1238.86 2076.76 1246.04C2066.74 1258.81 2066.36 1275.23 2061 1290M3171 1301C3173.39 1304.95 3186.15 1313.51 3189.35 1305.68C3191.96 1299.3 3182.81 1295.28 3178 1297.09C3175.53 1298.02 3173.24 1299.63 3171 1301M2013 1416C2027.5 1421.62 2042.21 1426.95 2054.96 1436.09C2060.68 1440.19 2063.09 1447.07 2068.18 1451.73C2076.34 1459.19 2092.53 1460.91 2101.71 1454.26C2119.53 1441.36 2117.96 1412.66 2138 1399.99C2152.33 1390.94 2169.21 1391.67 2184 1385.27C2189.95 1382.69 2193.43 1376.55 2192.75 1370C2191.44 1357.38 2177.53 1344.2 2167 1338.76C2142.42 1326.04 2115.91 1320.36 2090 1310.95C2081.17 1307.74 2072.69 1303.56 2064 1299.99C2060.53 1298.56 2056.69 1296.23 2053.1 1298.62C2038.46 1308.39 2055.01 1324.15 2051.36 1337C2049.12 1344.9 2042.65 1350.92 2038.79 1358C2028.82 1376.29 2018.69 1395.95 2013 1416M2011 1426.02C1989.56 1432.87 1994.12 1449.55 1983.5 1465C1976.63 1475 1964.39 1482.45 1959.85 1494C1957.22 1500.7 1965.1 1514.6 1959.64 1519.39C1954.94 1523.52 1942.41 1518.26 1937 1517.32C1925.95 1515.4 1912.35 1517.63 1903 1524.17C1891.41 1532.27 1879.36 1541.23 1871.22 1553C1864.85 1562.21 1862.66 1573.24 1854 1580.87C1845.49 1588.35 1828.8 1585.35 1822.33 1595.05C1815.99 1604.56 1816.48 1616.68 1812.12 1627C1803.5 1647.43 1789.67 1665.19 1781.45 1686C1776.71 1698 1778.43 1711.11 1773.93 1723C1769.16 1735.64 1760.98 1745.16 1752 1755C1748.51 1758.82 1740 1765.51 1739.85 1771C1739.68 1777.59 1749.15 1787.63 1752.66 1793C1766.37 1814.01 1778.77 1834.81 1798 1851.42C1831.29 1880.18 1867.51 1911.21 1908 1929.2C1917.69 1933.51 1929.17 1932.18 1939 1935.99C1955.45 1942.36 1969.12 1957.29 1986 1962.35C1998.75 1966.18 2019.77 1962.19 2033 1960.9C2036.32 1960.57 2039.12 1959.18 2042 1957.57C2045.67 1955.52 2051.75 1953.55 2053.97 1949.79C2058.54 1942.07 2054.7 1930.27 2058.51 1922.04C2061.63 1915.32 2078.78 1905.88 2086 1905.11C2106.71 1902.9 2135.51 1906.85 2153 1918.7C2165.3 1927.03 2177.93 1953.69 2197 1947.99C2208.48 1944.56 2219.31 1936.15 2230 1930.81C2239.37 1926.12 2250.08 1923.57 2259 1918.05C2274.24 1908.6 2287.88 1895.26 2302 1884.21C2310.96 1877.2 2321.85 1873.4 2331 1866.71C2342.3 1858.45 2351.42 1847.95 2363 1839.86C2372.61 1833.15 2383.47 1838.26 2394 1834.91C2398.36 1833.52 2406.08 1831.42 2408.86 1827.58C2413.09 1821.75 2412.39 1813.04 2416.7 1807.09C2419.96 1802.6 2427.14 1800.79 2429.4 1795.68C2432.66 1788.28 2428.68 1778.3 2425.01 1772C2420.42 1764.12 2416.25 1755.16 2410.61 1748C2406.45 1742.71 2400.37 1738.78 2396.85 1733C2393.92 1728.16 2393.99 1722.04 2391.43 1717.04C2388.59 1711.48 2380.41 1705.49 2375 1702.52C2367.86 1698.6 2353.45 1705.25 2346 1707.13C2338.03 1709.13 2329.26 1713.33 2321 1713.51C2303.78 1713.87 2286.03 1709.81 2269 1714.58C2256.3 1718.14 2233.89 1728.05 2222.32 1716.57C2218.92 1713.2 2220.74 1708.06 2221.65 1704C2223.78 1694.48 2226.7 1684.59 2228.29 1675C2230.08 1664.23 2221.36 1654.49 2221.37 1644C2221.38 1638.13 2224.76 1631.72 2226.12 1626C2229.13 1613.3 2231.43 1596.86 2227.43 1584.09C2225.36 1577.49 2215.77 1571 2210 1567.8C2194.25 1559.05 2176.02 1554.04 2161 1544.03C2145.95 1533.99 2127.94 1521.17 2119.04 1505C2113.24 1494.48 2111.34 1473.51 2102.3 1465.64C2098.36 1462.21 2090.43 1467.07 2086 1467.43C2080.02 1467.92 2068.82 1463.07 2064.17 1459.36C2059.05 1455.27 2056.53 1448.72 2051.83 1444.21C2044.91 1437.58 2034.8 1433.47 2026 1430.06C2021.68 1428.39 2015.72 1424.51 2011 1426.02z"/>
<path style="fill:#ffffff; stroke:none;" d="M1875.61 1610.05C1872.37 1612.48 1876.15 1617.95 1879.68 1615.91C1883.87 1613.49 1879.26 1607.3 1875.61 1610.05z"/>
<path style="fill:#d6c8ba; stroke:none;" d="M1732 1778C1709.21 1800.81 1683.39 1826.27 1668.33 1855C1661.23 1868.53 1661.31 1885.3 1654.63 1899C1643.79 1921.19 1627.01 1941.09 1617.77 1964C1611.16 1980.41 1610.64 1999.12 1605.43 2016C1602.85 2024.4 1600.57 2035.45 1595.91 2042.91C1589.34 2053.45 1581.73 2054.41 1580 2068C1594.12 2072.59 1608.4 2078.16 1617.3 2091.01C1623.46 2099.91 1629.01 2114.34 1630.57 2125C1631.63 2132.22 1631.14 2141.15 1633.6 2148C1635.8 2154.14 1642.51 2160.12 1646.75 2164.98C1653.55 2172.77 1666.38 2174.23 1676 2177C1692.29 2181.69 1704.37 2186.3 1716.82 2198.43C1726.74 2208.11 1737.56 2226.61 1741.36 2240C1743.69 2248.2 1739.76 2258.25 1746.07 2265.44C1749.55 2269.39 1756.46 2268.17 1761 2269.7C1768.79 2272.33 1784.72 2281.95 1787 2290C1810.86 2290.02 1835.4 2295.76 1859 2299C1869.07 2300.38 1883.73 2303.3 1893 2297.4C1909.5 2286.9 1917.68 2267.62 1926.26 2251C1931.58 2240.69 1937.97 2230.66 1942.57 2220C1952.39 2197.24 1959.27 2178.09 1986 2171.68C2006.24 2166.82 2031.38 2183.84 2051.83 2175.4C2067.54 2168.91 2070.84 2138.17 2091 2136.78C2095.05 2136.5 2099 2140.63 2102 2142.87C2111.37 2149.9 2125.3 2166.47 2137.9 2160.98C2144.21 2158.23 2146.03 2147.53 2149.35 2142C2153.71 2134.74 2162.95 2127.75 2170 2123.15C2176.11 2119.16 2185.99 2121 2193 2121C2201.66 2121 2211.46 2118.4 2219 2113.93C2232.07 2106.17 2240.86 2091.64 2253 2082.61C2259.5 2077.77 2268.32 2072.25 2276 2069.61C2282.23 2067.47 2288.84 2067.91 2295 2065.28C2307.15 2060.08 2318.38 2050.43 2331 2046.65C2346 2042.15 2364.24 2045.95 2380 2042.1C2402.56 2036.59 2422.01 2021.55 2446 2022.05C2463.73 2022.43 2483.22 2027.16 2501 2029.29C2507.75 2030.09 2517.45 2032.61 2524 2030.27C2531.08 2027.74 2533.33 2021.13 2538.33 2016.39C2546.22 2008.91 2555.03 2006.72 2561.67 1997C2565.9 1990.81 2566.06 1982.91 2568.55 1976C2571.19 1968.69 2576.18 1961.48 2580.44 1955C2587.96 1943.58 2603.59 1941.41 2612.5 1931.62C2623.19 1919.88 2618.87 1902.61 2625.18 1890C2628.43 1883.5 2638.17 1879.32 2639.69 1872C2640.5 1868.11 2635.54 1865.24 2633 1863.2C2624.12 1856.07 2615.61 1852.88 2604 1855.39C2591.21 1858.16 2582.11 1867.22 2568 1866.49C2558.86 1866.02 2546.86 1854.25 2539 1849.6C2530.7 1844.69 2519.8 1845.96 2512.11 1841.06C2500.42 1833.62 2503.59 1813.14 2505 1802C2481.1 1794.36 2444.95 1791.14 2425.28 1809.9C2418.15 1816.69 2421 1831.33 2411.95 1836.29C2405.98 1839.56 2397.82 1843.35 2391 1843.91C2383.52 1844.52 2374.71 1842.18 2368 1846.25C2355.83 1853.63 2347.2 1864.51 2336 1872.96C2327.95 1879.02 2318.29 1882.52 2310 1888.22C2293.65 1899.46 2279.62 1914.06 2263 1924.9C2253.25 1931.26 2241.38 1934.18 2231 1939.37C2219.96 1944.89 2208.87 1953.45 2197 1956.99C2192.52 1958.33 2188.13 1955.85 2184 1954.32C2167.69 1948.28 2162.5 1934.94 2148.96 1925.82C2132.73 1914.88 2108.02 1913.05 2089 1913.14C2085.22 1913.16 2082.15 1915.13 2079 1917C2075.26 1919.23 2069.39 1921.51 2067.02 1925.33C2062.04 1933.37 2066.59 1945.63 2061.98 1953.91C2056.98 1962.86 2038.52 1968.92 2029 1969.83C2016.88 1970.99 1997.69 1974.67 1986 1971.5C1968.88 1966.87 1954.35 1951.63 1938 1944.72C1928.18 1940.58 1916.78 1941.83 1907 1937.66C1882.6 1927.26 1862.19 1911.51 1841 1895.88C1820.52 1880.79 1799.51 1865.7 1782.09 1847C1770.2 1834.24 1760.67 1820.77 1751.42 1806C1745.77 1796.97 1740.25 1784.81 1732 1778z"/>
<path style="fill:#e8e0d8; stroke:none;" d="M2602 1846L2602 1847L2625 1847L2602 1846z"/>
<path style="fill:#d6c8ba; stroke:none;" d="M2670 2989C2676.74 2938.93 2686.56 2888.65 2695.91 2839C2702.75 2802.61 2706.08 2765.03 2714.53 2729C2718.41 2712.44 2731.68 2698.71 2735.57 2682C2748.11 2628.17 2753.87 2572.4 2768.29 2519C2774.84 2494.73 2788.33 2472.34 2794.62 2448C2800 2427.2 2805.16 2404.3 2807.82 2383C2809.52 2369.33 2808.73 2355.45 2812.25 2342C2816.11 2327.26 2828.55 2316.3 2832.39 2301C2835.77 2287.55 2825.99 2282.3 2819.93 2272C2812.1 2258.7 2805.16 2236.19 2810.44 2221C2818.31 2198.37 2836.49 2182.59 2845.79 2161C2856.45 2136.25 2854.98 2108.23 2870.7 2085C2880.25 2070.87 2899.58 2065.38 2909.1 2051.71C2911.91 2047.68 2909.05 2044.26 2909.6 2040C2910.16 2035.66 2914.13 2031.32 2917.17 2028.44C2923.01 2022.92 2930.33 2018.95 2935.7 2012.96C2948.44 1998.75 2956.92 1982.03 2971 1968.91C2977.19 1963.15 2990.87 1952.89 2988.49 1943C2985.03 1928.66 2971.75 1930.39 2960 1928.2C2951.4 1926.59 2941.17 1927.07 2933 1924.01C2916.02 1917.63 2899.56 1904.33 2884 1895C2874.69 1889.41 2860.31 1876.21 2849 1879.29C2838.54 1882.14 2838.82 1896.2 2833.35 1904C2820.94 1921.73 2801.25 1930.06 2780 1924.21C2768.04 1920.92 2756.94 1914.85 2745 1911.43C2725.24 1905.76 2704.36 1902.88 2685 1895.91C2676.64 1892.9 2667.78 1888.5 2660 1884.2C2656.72 1882.4 2652.9 1878.02 2649.04 1877.83C2644.51 1877.61 2637.84 1886.77 2635.28 1890C2631.44 1894.84 2632.41 1900.29 2631.38 1906C2629.74 1915.11 2625.48 1929.58 2619.36 1936.67C2611.16 1946.18 2595.86 1948.41 2587.9 1958.21C2574.71 1974.48 2574.42 1995.06 2560.56 2010.98C2552.19 2020.61 2536.23 2025.34 2530.12 2037.32C2528.55 2040.39 2530.64 2044.91 2531.35 2048C2533.13 2055.79 2538.15 2070.36 2533.97 2077.9C2531.62 2082.14 2525.2 2084.27 2521 2086.14C2510.14 2090.98 2499.22 2094.76 2488 2098.67C2482.12 2100.72 2472.98 2105.44 2471.32 2112C2469.34 2119.78 2468.34 2142.19 2472.6 2149C2479.96 2160.74 2493.37 2164.13 2502.61 2173.52C2511.01 2182.06 2512.45 2200.02 2509.58 2211C2506.38 2223.31 2491.95 2235.96 2484.37 2246C2472.34 2261.95 2461.89 2282.11 2455.09 2301C2452.34 2308.63 2445.41 2322.93 2446.91 2331C2449.08 2342.73 2460.75 2352.38 2461.7 2365C2463.37 2387.09 2457.41 2414.42 2452.71 2436C2446.95 2462.45 2432.63 2486.01 2423.06 2511C2419.66 2519.9 2415.24 2529.66 2413.38 2539C2412.31 2544.36 2413.81 2549.82 2411.64 2555C2406.63 2566.94 2392.3 2579.1 2390.53 2592C2389.09 2602.47 2403.88 2615.07 2408.99 2623C2413.32 2629.73 2414.29 2640.2 2415.74 2648C2421.8 2680.51 2415.36 2710.46 2407.37 2742C2403.68 2756.6 2400.86 2772.06 2395.01 2786C2386.44 2806.43 2356.98 2804.68 2342.17 2816.51C2323.71 2831.26 2329.4 2848.98 2322.11 2868C2318.91 2876.33 2307.06 2884.84 2300 2889.94C2291.69 2895.95 2276.87 2893.4 2267 2894.09C2248.96 2895.35 2231.42 2901.04 2218.22 2913.67C2213.13 2918.54 2204.62 2936.97 2205.37 2944C2206.1 2950.88 2212.32 2960.18 2210.31 2967C2205.83 2982.15 2182.98 2982.76 2176.07 2994.53C2171.77 3001.85 2183.11 3011.82 2179.45 3020C2176.37 3026.88 2171.09 3036.84 2164.96 3041.35C2156.07 3047.9 2140.61 3047.67 2140.36 3062C2140.13 3074.83 2149.56 3079.61 2159 3085.69C2169.66 3092.56 2184.96 3102.62 2192.3 3113.04C2214.22 3144.13 2200.81 3188.81 2230.38 3216.58C2235.49 3221.38 2245.48 3223.08 2252 3225.34C2263.56 3229.36 2275.53 3234.56 2286 3240.93C2294.79 3246.28 2301.09 3258.39 2311 3261.28C2325.15 3265.4 2346.83 3262.57 2358.79 3272.51C2369.8 3281.67 2377.22 3302.57 2384.28 3315C2395.55 3334.82 2407.5 3346.85 2425 3361.41C2431.11 3366.5 2437.73 3373.76 2445 3377.08C2450.31 3379.5 2457.27 3379.59 2463 3380.42C2467.3 3381.04 2472.71 3382.51 2477 3381.57C2480.53 3380.79 2483.87 3378.41 2487 3376.69C2490.96 3374.52 2497.32 3372.17 2499.99 3368.39C2508.84 3355.84 2502.04 3332.25 2504.21 3318C2505.35 3310.53 2510.83 3302.57 2514.41 3296C2522.94 3280.39 2527.71 3261.73 2533.69 3245C2538.76 3230.82 2546.75 3218.04 2552.09 3204C2558.07 3188.25 2561.22 3171.69 2567.6 3156C2576.47 3134.23 2594.94 3115.61 2601.36 3093C2604.8 3080.9 2600.34 3063.85 2597.37 3052C2596.03 3046.63 2592.26 3038.44 2594.18 3033C2600.84 3014.15 2617.66 3005.87 2634 2997.75C2647.22 2991.19 2655.28 2985.62 2670 2989M1788 2299C1788 2302.72 1788.79 2307.62 1786.4 2310.78C1780.57 2318.44 1768.98 2314.7 1765.94 2326C1764.18 2332.58 1768.19 2339.42 1766.36 2346C1762.86 2358.61 1756 2370.1 1752.76 2383C1750.64 2391.45 1753.06 2400.45 1751.68 2409C1747.39 2435.47 1740.91 2463.95 1743.09 2491C1744.6 2509.69 1755.33 2526.61 1773 2532.95C1780.13 2535.51 1805.7 2544.01 1805.18 2553C1804.16 2570.94 1786.89 2573.75 1775 2583.67C1772.67 2585.62 1768.79 2587.34 1767.64 2590.33C1764.71 2597.96 1773.42 2609.8 1773.01 2618C1772.66 2625.02 1767.8 2631.4 1765.77 2638C1763.11 2646.67 1762.29 2656.97 1761.46 2666C1760.4 2677.55 1766.61 2689.34 1764.67 2701C1762.69 2712.92 1748.86 2733.98 1755.63 2746C1762.11 2757.52 1777.98 2770.31 1792 2769.87C1800.62 2769.59 1809.67 2764.86 1818 2762.76C1827.48 2760.37 1840.23 2758.97 1850 2759.15C1859.46 2759.32 1860.65 2772.22 1869.01 2774.57C1875.34 2776.34 1882.54 2775.11 1889 2776.76C1902.89 2780.32 1916.31 2786.95 1930 2791.34C1938.3 2794.01 1952.96 2799.22 1958.4 2806.33C1961 2809.73 1959.54 2814.16 1959.17 2818C1958.71 2822.78 1959.33 2827.41 1957.52 2832C1954.94 2838.53 1949.21 2844.18 1947.51 2851C1944.29 2863.92 1956.19 2882.34 1960.57 2894C1963.29 2901.23 1962.81 2908.46 1963.71 2916C1964.36 2921.44 1964.24 2933.25 1970.23 2935.86C1984.47 2942.05 2002.84 2941 2018 2941C2051.2 2941 2085.5 2938.06 2118 2945.33C2128.08 2947.59 2142.64 2950.84 2150.83 2957.5C2158.7 2963.9 2166.69 2976.88 2171 2986C2179.13 2983.61 2200.24 2973.42 2201.39 2964C2202.4 2955.72 2194.71 2947.26 2196.79 2939C2201.26 2921.23 2211.84 2908.47 2226 2897.87C2238.71 2888.36 2258.4 2886.16 2274 2885.09C2280.16 2884.67 2288.27 2886.62 2294 2884.01C2317.94 2873.09 2312.02 2854 2319.26 2834C2322.16 2825.99 2330.77 2815.84 2337.04 2810.13C2350.36 2798 2376.6 2801.12 2386.7 2783.82C2393.38 2772.37 2395.18 2755.76 2398.37 2743C2407.75 2705.5 2413.82 2673.17 2404.41 2635C2401.41 2622.81 2391.44 2614.01 2385.74 2603C2384.07 2599.78 2380.71 2595.82 2381.09 2592C2382.41 2579.05 2397.92 2565.94 2402.91 2554C2405.19 2548.56 2404.26 2541.75 2405.52 2536C2407.43 2527.23 2411.51 2518.39 2414.68 2510C2424.06 2485.21 2437.63 2461.99 2443.96 2436C2449.09 2414.97 2455.24 2386.6 2452.81 2365C2451.4 2352.49 2439.24 2342.7 2437.84 2331C2436.85 2322.83 2443.37 2309.76 2446 2302C2451.61 2285.45 2460.75 2263.97 2471.24 2250C2483.12 2234.18 2501.45 2218.44 2502.48 2198C2503.41 2179.7 2487.54 2174.52 2476.01 2164.67C2466.16 2156.26 2462.94 2148.49 2462.09 2136C2461.58 2128.5 2459.5 2113.77 2463.03 2107.04C2471.25 2091.34 2495.34 2088.07 2510 2081.99C2514.19 2080.25 2522.23 2078.08 2524.97 2074.31C2530.64 2066.52 2522.24 2048.41 2521 2040C2503.4 2038.61 2485.49 2037.2 2468 2034.71C2457.06 2033.16 2447.24 2030.27 2436 2031.09C2417.58 2032.44 2400.65 2045.37 2383 2050.08C2366.51 2054.48 2349.33 2052.12 2333 2055.27C2320.29 2057.73 2308.83 2068.64 2297 2073.64C2289.98 2076.61 2281.94 2075.73 2275 2079.12C2253.54 2089.61 2240.9 2113 2220 2122.56C2213.48 2125.54 2205.21 2129.55 2198 2129.96C2191.08 2130.34 2180.26 2127.6 2174 2130.52C2167.23 2133.68 2158.69 2141.39 2155.27 2148C2151.77 2154.79 2149.77 2165.49 2141.98 2168.6C2125.77 2175.06 2116.37 2163.65 2104 2154.37C2100.63 2151.85 2095.48 2146.22 2091 2146.27C2085.92 2146.32 2080.72 2152.4 2077.89 2156C2071.52 2164.12 2064.54 2179.08 2055 2183.57C2036.1 2192.44 2009.6 2179.41 1990 2180.06C1983.59 2180.27 1976.67 2184.47 1971 2187.26C1958.47 2193.42 1954.88 2213.05 1949.22 2225C1936.54 2251.77 1921.79 2288.7 1896 2305.27C1885.6 2311.95 1869.38 2309.11 1858 2307.42C1835.03 2304.02 1811.23 2299 1788 2299z"/>
<path style="fill:#ebe4dd; stroke:none;" d="M2330 2046L2330 2047L2347 2047L2330 2046z"/>
<path style="fill:#d6c8ba; stroke:none;" d="M1574.09 2076.21C1568.16 2078.62 1562.66 2088.21 1558.58 2093C1549.76 2103.35 1541.18 2114.05 1531.91 2124C1525.14 2131.27 1517.68 2136.81 1515.52 2147C1511.66 2165.16 1517.19 2184.98 1507.73 2201.99C1502.84 2210.77 1491.42 2213.96 1485.7 2222.04C1479.76 2230.44 1481.89 2241.52 1473.96 2248.7C1462.95 2258.65 1448.92 2262.49 1439.61 2275C1422.03 2298.63 1416.05 2330.83 1405.77 2358C1397.84 2378.98 1385.62 2397.46 1378.33 2419C1371.45 2439.35 1351.87 2448.91 1339.39 2465C1334.28 2471.59 1333.12 2480.19 1330.99 2488C1329.62 2493.02 1324.58 2505.9 1327.12 2510.62C1329.95 2515.9 1347.11 2525 1353 2525.44C1361.92 2526.11 1372.13 2523.38 1381 2522.28C1398.98 2520.07 1416.99 2517.97 1435 2515.95C1458.63 2513.3 1483.68 2517.75 1506 2525.69C1521.77 2531.31 1537.6 2539.85 1554 2543.33C1573.75 2547.52 1594.94 2547.84 1615 2550.57C1621.49 2551.46 1628.85 2550.88 1635 2553.35C1651.24 2559.88 1666.09 2571.56 1683 2576.36C1694.95 2579.75 1709.45 2577.49 1722 2580C1731.88 2581.98 1749.48 2589.14 1759 2584.72C1767.19 2580.92 1772.7 2573.77 1780 2568.85C1783.84 2566.26 1788.98 2565.71 1792.58 2562.91C1794.93 2561.09 1796.44 2557.1 1795.36 2554.21C1791.84 2544.89 1770.02 2541.51 1762 2537.44C1746.85 2529.77 1734.39 2508.08 1734.18 2491C1733.85 2464.12 1739.27 2437.51 1742.71 2411C1743.78 2402.76 1741.84 2394.16 1743.51 2386C1746.44 2371.72 1755.71 2358.08 1757.79 2344C1758.62 2338.33 1756.39 2332.72 1757.21 2327C1757.9 2322.19 1760.39 2315.8 1764.21 2312.65C1771.84 2306.36 1784.77 2305.6 1778.4 2291.33C1771.67 2276.26 1747.98 2281.98 1739.65 2271.85C1732.14 2262.72 1734.85 2251.38 1732.61 2241C1729.99 2228.87 1719.39 2212.87 1710.91 2204.04C1698.87 2191.52 1685.13 2188.03 1669 2183.42C1661.88 2181.39 1651.98 2180.08 1646.01 2175.57C1639.11 2170.34 1628.15 2158.24 1625.34 2150C1619.02 2131.44 1623.42 2107.94 1607.87 2092.58C1601.65 2086.43 1584.11 2072.14 1574.09 2076.21z"/>
<path style="fill:#ebe4dd; stroke:none;" d="M2462 2115L2462 2140L2463 2140L2462 2115z"/>
<path style="fill:#e8e0d8; stroke:none;" d="M2177 2129L2177 2130L2194 2130L2177 2129z"/>
<path style="fill:#ebe4dd; stroke:none;" d="M2027 2176L2027 2177L2045 2177L2027 2176M1751 2388L1751 2411L1752 2411L1751 2388z"/>
<path style="fill:#d6c8ba; stroke:none;" d="M1321 2518C1314.46 2526.4 1304.54 2530.75 1297.39 2538.44C1292.09 2544.15 1291.1 2552.61 1286.78 2559C1277.71 2572.44 1265.78 2583.84 1259.5 2599C1253.33 2613.89 1249.25 2632.02 1247.29 2648C1246.02 2658.28 1246.31 2670.15 1242.89 2680C1239.1 2690.93 1231.22 2700.64 1226.12 2711C1220.53 2722.36 1216.37 2738.5 1214.32 2751C1210.55 2774.09 1210.02 2800.61 1211.04 2824C1211.66 2838.28 1215.36 2857.03 1211.57 2871C1209.77 2877.61 1202.85 2881.85 1200 2888C1209.87 2885.64 1229.36 2880.8 1239 2884.4C1256.7 2891.03 1276.07 2912.04 1297 2901.82C1315.36 2892.86 1311.35 2869.61 1327.09 2858.6C1334.11 2853.69 1344.74 2856.53 1352 2851.97C1360.97 2846.33 1368.39 2838.11 1377 2831.92C1382.98 2827.62 1390.23 2825.14 1396 2820.61C1402.42 2815.57 1407.22 2808.72 1414 2804.09C1434.3 2790.25 1459.26 2774.36 1482 2765.09C1509.92 2753.72 1546.04 2748.14 1576 2746.09C1581.01 2745.75 1589.26 2744.35 1594 2745.83C1599.18 2747.45 1604.02 2753.41 1608 2756.95C1622.05 2769.43 1632.15 2787.29 1650 2793.95C1661.55 2798.26 1677.61 2807.9 1690 2807.74C1701.61 2807.58 1712.96 2803.46 1724 2800.29C1728.41 2799.02 1734.37 2796.11 1739 2796.81C1746.71 2797.98 1758.86 2808.99 1763.39 2815C1765.78 2818.18 1767.49 2823.69 1771.33 2825.4C1776.91 2827.88 1788.08 2824.84 1794 2824C1815.04 2821.02 1835.4 2814.77 1856 2810C1856 2799.37 1861.46 2778.14 1852.7 2770.32C1848.3 2766.39 1840.31 2768.72 1835 2769.42C1820.5 2771.36 1806.29 2777.1 1792 2778.63C1774.89 2780.47 1757.39 2761.93 1748.33 2750C1739.57 2738.44 1752.39 2713.91 1756.03 2702C1759.03 2692.19 1753.47 2679.1 1753.04 2669C1752.61 2658.74 1754.56 2645.76 1757.75 2636C1761.61 2624.18 1769.57 2608.27 1759.06 2596.6C1755.96 2593.16 1744.54 2593.11 1740 2592.2C1729.24 2590.05 1717.89 2586.43 1707 2585.41C1698.49 2584.62 1689.38 2587.92 1681 2584.9C1663.82 2578.7 1648.64 2565.7 1631 2560.93C1605.33 2553.98 1576.82 2557.6 1551 2551.4C1524.48 2545.04 1500.37 2529.06 1473 2525.21C1446.54 2521.49 1418.3 2525.87 1392 2529.29C1379.39 2530.93 1363.67 2535.59 1351 2533.76C1340.55 2532.26 1330.65 2522.16 1321 2518z"/>
<path style="fill:#ebe4dd; stroke:none;" d="M1681 2585L1681 2586L1704 2586L1681 2585z"/>
<path style="fill:#d6c8ba; stroke:none;" d="M1193 2897L1193 2925C1201.16 2924.99 1209.9 2924.65 1218 2923.71C1221.23 2923.34 1226.18 2922.23 1227.83 2926.15C1229.61 2930.37 1223.16 2936.02 1220.88 2939C1215.21 2946.44 1212.29 2954.49 1207.3 2962C1205.38 2964.89 1200.64 2968.01 1200.64 2971.79C1200.64 2976.86 1210.29 2976.92 1211.68 2982.05C1214.25 2991.54 1203.96 2998.52 1206.07 3007C1208.53 3016.88 1215.82 3026.88 1220.33 3036C1224.56 3044.54 1227.23 3054.02 1230.34 3063C1232.11 3068.1 1237.75 3077.41 1236.07 3082.85C1235.01 3086.29 1230.87 3085.98 1228 3086C1219.87 3086.06 1211.04 3084.99 1203 3086.3C1192.11 3088.08 1189 3106.96 1189 3116C1193.18 3116.19 1197.91 3118.43 1202 3117.45C1205.46 3116.62 1209.14 3112.05 1212.89 3113.31C1217.36 3114.8 1221.95 3129.04 1217.67 3132.15C1214.12 3134.73 1204.92 3133.7 1200 3136L1200 3138C1213.42 3141.47 1227.64 3141.22 1241 3144.73C1249.71 3147.03 1262.03 3152.71 1271 3150.21C1277.24 3148.47 1287.75 3144.51 1292.1 3139.61C1298.86 3131.97 1299.91 3122.67 1309 3116.7C1324.45 3106.54 1339.89 3096.79 1354 3084.7C1369.51 3071.4 1382.4 3056.03 1400 3045.11C1423.06 3030.81 1448.12 3027.59 1474 3022.33C1492.46 3018.59 1515.16 3013.19 1534 3016.33C1548.86 3018.8 1575.17 3027.13 1584.03 3040.04C1592.01 3051.66 1592.97 3068.26 1601.3 3079C1612.34 3093.23 1632.45 3103.81 1640.54 3120C1644.26 3127.44 1644.04 3139.74 1644.83 3148C1647.13 3172.18 1626.75 3209.29 1646.22 3229.71C1668.74 3253.31 1689.73 3228.33 1716 3228.27C1721.91 3228.26 1728.25 3231.73 1734 3233.1C1742.88 3235.21 1753.86 3235.92 1763 3236C1761.69 3219.44 1754.01 3203.27 1754 3187C1754 3180.2 1753.17 3174.35 1758.06 3169C1762 3164.68 1767.36 3157.62 1773 3155.61C1779.45 3153.3 1789.41 3156.86 1796 3157.71C1804.23 3158.78 1814.86 3157.23 1823 3155.66C1838.64 3152.64 1858.8 3136.75 1872 3127.9C1882.12 3121.11 1887.73 3109.27 1897 3101.44C1906.99 3093 1917.85 3083.75 1929 3076.93C1938.88 3070.88 1951.31 3066.63 1959.91 3058.79C1974.84 3045.18 1979.12 3025.32 1992.21 3011.09C2017.29 2983.84 2056.25 2965.05 2090 2951L2090 2950C2058.97 2950 2027.96 2950.11 1997 2948.99C1988.46 2948.68 1967.33 2947.53 1961.51 2940.77C1952.69 2930.51 1955.97 2912.28 1953.68 2900C1950.8 2884.62 1935.72 2867.37 1938.51 2851C1940.63 2838.58 1957.16 2825.79 1950.4 2811.39C1947.51 2805.24 1933.11 2800.62 1927 2798.86C1905.98 2792.8 1887.35 2783.06 1865 2783C1865 2790.9 1868.25 2808.28 1863.26 2814.72C1859.12 2820.06 1846.32 2822.12 1840 2823.25C1822.28 2826.41 1804.92 2831.44 1787 2833.17C1781.62 2833.69 1774.33 2835.93 1769.04 2834.67C1764.07 2833.49 1761.55 2826.91 1759.05 2823C1755.06 2816.78 1745.76 2807.1 1738 2805.89C1733.5 2805.18 1727.31 2808.05 1723 2809.29C1712.43 2812.32 1702.09 2815.78 1691 2816.32C1684.94 2816.61 1678.58 2813.1 1673 2811.05C1661.3 2806.77 1647.96 2803.67 1637 2797.73C1619.06 2787.98 1608.52 2753.06 1585 2754.04C1553.02 2755.37 1513.75 2760.76 1484 2773.2C1435.46 2793.5 1397.89 2830.99 1355 2859.66C1348.01 2864.33 1338.28 2861.55 1331.51 2866.01C1323.12 2871.55 1321.67 2884.53 1317.89 2893C1314.89 2899.74 1304.74 2908.01 1298 2910.91C1274.42 2921.08 1257.18 2898.46 1237 2892.65C1224.28 2888.99 1206.13 2896.44 1193 2897M1172 2874C1151.92 2903.43 1127.06 2928.08 1102.91 2954C1093.71 2963.88 1082.2 2972.48 1075 2984C1096.31 2974.12 1113.79 2952.03 1129.17 2935C1138.83 2924.3 1148.49 2915.46 1156 2903C1160.1 2896.2 1173.14 2881.85 1172 2874z"/>
<path style="fill:#ffffff; stroke:none;" d="M1544 2892.43C1517.47 2895.59 1471.34 2891.91 1458.07 2921C1455.65 2926.29 1458.6 2945.24 1462.56 2949.5C1468.22 2955.59 1480.68 2956.97 1488 2960.66C1507.11 2970.28 1527.43 2989.52 1551 2986.53C1561 2985.26 1570.37 2978.4 1580 2975.63C1586.77 2973.68 1594.63 2974.72 1601 2971.43C1604.91 2969.41 1611.85 2965.28 1613.36 2960.91C1615.42 2954.93 1609.3 2944.55 1607.19 2939C1598.53 2916.19 1586.54 2906.08 1564 2897.58C1557.58 2895.15 1551.02 2891.59 1544 2892.43z"/>
<path style="fill:#d6c8ba; stroke:none;" d="M1542 2901.43C1519.95 2904.21 1478.33 2900.19 1467.04 2924C1465.06 2928.18 1467.01 2940.79 1470.56 2943.93C1476.33 2949 1486.29 2949.86 1493 2953.52C1510.2 2962.9 1529.42 2980.77 1551 2977.38C1565.01 2975.18 1578.8 2967.78 1593 2964.96C1596.73 2964.21 1602.22 2961.71 1603.64 2957.83C1605.25 2953.42 1600.16 2944.28 1598.66 2940C1591.36 2919.21 1565.55 2898.45 1542 2901.43z"/>
<path style="fill:#ebe4dd; stroke:none;" d="M2036 2941L2036 2942L2099 2942L2079 2941L2036 2941z"/>
<path style="fill:#d6c8ba; stroke:none;" d="M1260 3586C1254.8 3587.53 1243.95 3592.11 1241.61 3597.38C1239.74 3601.57 1242.51 3608.62 1243.05 3613C1244.95 3628.23 1246.1 3647.23 1253.32 3661C1257.7 3669.34 1261.66 3680.26 1266.84 3687.83C1270.67 3693.41 1277.9 3696.56 1278.75 3704C1279.79 3713.12 1274.44 3720.55 1272.53 3729C1270.25 3739.07 1272.92 3751.5 1276.44 3761C1290.48 3798.92 1318.78 3830.15 1329.58 3869C1332.94 3881.1 1331.69 3890.26 1327.07 3902C1325.02 3907.22 1320.84 3912.32 1320.25 3918C1318.91 3930.89 1330.34 3944.29 1338.43 3952.83C1365.55 3981.48 1393.91 4003.21 1412.26 4039C1416.96 4048.18 1425.42 4071.98 1419 4081L1419 4082L1453 4108.79L1470 4121.26L1488 4119.2L1501 4122C1510.72 4103.74 1517.49 4082.42 1524.68 4063C1527.78 4054.64 1532.92 4046.07 1533 4037C1533.26 4006.42 1517.62 3980.71 1520.09 3950C1522.64 3918.3 1543.19 3887.88 1543.99 3856C1544.52 3834.48 1540.62 3811.17 1543.18 3790C1544.67 3777.73 1551.57 3766.19 1553.91 3754C1556.63 3739.76 1557.4 3717.93 1566.7 3706.15C1571.61 3699.93 1586.98 3703.73 1594 3704.04C1610.19 3704.75 1627.86 3708.83 1644 3706.81C1651 3705.94 1658.32 3702.27 1665 3700C1681.04 3694.53 1688.45 3680.47 1700.17 3669.13C1708.51 3661.06 1730.57 3650.41 1742 3648.18C1746.44 3647.31 1751.21 3650.86 1755 3652.75L1784 3667.25C1787.67 3669.08 1793.72 3673.71 1798 3672.6C1805.88 3670.55 1813.91 3659.37 1820 3654.19C1826.58 3648.58 1846.22 3642.23 1855 3643.49C1861.28 3644.39 1866.64 3653.5 1870.41 3658C1879.83 3669.22 1888.99 3680.58 1900 3690.29C1903.2 3693.11 1906.79 3698.45 1911 3699.69C1914.91 3700.85 1919.25 3696.18 1922 3694C1929.51 3688.05 1937.29 3679.85 1946 3675.77C1961.14 3668.67 1981.91 3678.08 1998 3676C1993.02 3656.75 1979.31 3648.46 1967.76 3633C1956.22 3617.56 1950.68 3599.46 1950.46 3580C1950.34 3569.23 1955.35 3544.27 1962.23 3536C1976.94 3518.33 2005.45 3506.81 2012.49 3483C2016.58 3469.16 2011.26 3452.3 2013.3 3438C2015.87 3420 2026.17 3400.16 2025.53 3382C2024.69 3358.22 2013.25 3338.43 2020.43 3314.02C2022.33 3307.55 2031.61 3304.61 2037 3301.69C2048 3295.73 2057.61 3290.11 2061.09 3277C2062.74 3270.78 2056.96 3261.74 2054.81 3256C2052.05 3248.6 2053.37 3231.5 2058.43 3225.09C2065.98 3215.55 2080.35 3210.45 2090 3203.24C2105.99 3191.29 2119.76 3172.89 2140 3167.38C2153.9 3163.59 2167.98 3160.44 2182 3157.12C2185.69 3156.24 2194.66 3155.63 2196.38 3151.7C2198.57 3146.71 2192.99 3137.7 2191.34 3133C2185.26 3115.63 2174.13 3105.8 2159 3095.35C2151.72 3090.32 2138.77 3085.49 2135.13 3076.99C2130.47 3066.07 2130.09 3051.38 2141.04 3043.81C2147.49 3039.36 2157.08 3038.8 2162.39 3032.79C2165.7 3029.03 2170.5 3021.99 2171.33 3017C2172.12 3012.22 2169.15 3006.44 2167.67 3002C2163.42 2989.26 2156.91 2972.23 2145.68 2963.84C2137.84 2957.99 2116.86 2950.54 2107 2951.8C2097.07 2953.07 2084.96 2962.27 2076 2966.75C2049.3 2980.1 2017.14 2993.54 1997.61 3017.17C1991.67 3024.36 1988.49 3034.03 1983.69 3042C1976.14 3054.56 1965.67 3065.51 1953 3072.72C1934.44 3083.27 1915.76 3094.5 1900.04 3109.17C1892.35 3116.35 1887.14 3125.93 1879 3132.67C1865.25 3144.06 1845.98 3154.1 1830 3162.09C1810.63 3171.79 1780.44 3155.11 1766.15 3172C1756.94 3182.89 1765.81 3202.24 1768.5 3214C1773.19 3234.47 1772.18 3254.7 1760.62 3273C1747.24 3294.17 1731.28 3313.71 1718.06 3335C1696.69 3369.43 1677.99 3404.07 1652.79 3436C1628.63 3466.6 1594.13 3487.93 1568.17 3517C1554.66 3532.13 1542.89 3550.17 1533.31 3568C1529.21 3575.62 1527.18 3584.82 1522.19 3591.91C1510.64 3608.31 1486.22 3615.1 1469 3623.05C1457.24 3628.48 1449.09 3637.08 1436 3640.39C1423.66 3643.51 1409.52 3637.34 1397 3637.34C1385.93 3637.34 1375.01 3640.6 1364 3640.87C1354.87 3641.1 1345.04 3638.39 1336 3637.13C1316.07 3634.35 1293.45 3634.08 1277.21 3620.36C1268.96 3613.39 1264.11 3595.86 1260 3586M2199 3162C2187.2 3162.51 2175.42 3167.33 2164 3170.1C2155.18 3172.24 2145.12 3172.87 2137 3177.18C2120.67 3185.85 2109.29 3198.41 2095 3209.47C2087.07 3215.61 2069.07 3221.69 2065.03 3231.18C2061.71 3239 2061.21 3249.1 2064.05 3257C2066.57 3263.98 2072.55 3272.63 2069.17 3280C2065.53 3287.94 2060.68 3297.59 2053 3302.12C2046.49 3305.97 2029.5 3310.8 2028.15 3319.02C2024.42 3341.58 2032.64 3359.01 2033.91 3381C2034.97 3399.37 2024.36 3418.79 2022.18 3437C2020.41 3451.84 2025.76 3469.7 2021.35 3484C2016.13 3500.92 1997.83 3515.49 1985 3526.42C1979.22 3531.35 1969.89 3536.74 1967.02 3544C1955.92 3572.06 1956.47 3604.53 1974.76 3629C1982.57 3639.45 1995.62 3647.56 2001.86 3659C2008.26 3670.73 2010.08 3684.67 1994 3685C1998.36 3700.13 2007.29 3710.46 2008 3727C2021.21 3729.73 2030.57 3733.42 2042 3740.58C2045.49 3742.76 2051.06 3745.09 2052.8 3749.09C2055.43 3755.14 2050.42 3768.63 2049.2 3775C2047.08 3785.98 2043.29 3796.85 2042.17 3808C2040.66 3823.14 2042.34 3837.44 2033.01 3850.9C2027.98 3858.15 2013.87 3861.12 2006 3864.42C1993.59 3869.63 1981.61 3878.22 1969 3882.4C1950.59 3888.5 1926.85 3888.34 1916.8 3909.04C1912.93 3917.01 1911.42 3926.05 1907.49 3934C1898.27 3952.63 1884.79 3971.31 1880.39 3992C1879.08 3998.15 1880.42 4004.76 1879.83 4011C1877.96 4030.65 1876.71 4050.51 1880.67 4070C1883.02 4081.59 1888.61 4092.43 1890.68 4104C1892.36 4113.44 1894.54 4123.41 1894.96 4133C1895.27 4140.02 1893.65 4148.19 1895.5 4155C1898.47 4165.99 1906.52 4176.4 1913.58 4185C1916.77 4188.89 1923.7 4194.77 1924.21 4200C1924.56 4203.58 1921.2 4207.17 1919.42 4210C1911.97 4221.88 1897.73 4224.22 1890.24 4235.04C1887.97 4238.33 1885.8 4242.17 1884.62 4246C1881.07 4257.5 1882.33 4269.33 1892.18 4277.36C1896.27 4280.69 1901.8 4281.76 1905.68 4285.39C1909.94 4289.38 1913.3 4295.18 1916.56 4300C1925.51 4313.23 1918.82 4337.37 1922.39 4353C1930.65 4389.24 1973.5 4415 2008 4415C2007.32 4381.86 2007.53 4350.04 2010.83 4317C2012.5 4300.27 2013.31 4282.92 2019.32 4267C2029.29 4240.64 2052.02 4218.99 2060.28 4192C2067.48 4168.47 2075.64 4144.18 2080.2 4120C2083.02 4105 2082.27 4087.11 2088.34 4073C2101.25 4042.96 2127.28 4021.77 2142.22 3993C2153.7 3970.88 2156.88 3942.46 2172.8 3923C2178.23 3916.37 2186.03 3913.91 2191.91 3907.96C2206.87 3892.82 2219.23 3873.73 2236 3860.52C2255.8 3844.91 2279.19 3834.08 2299 3818.48C2313.93 3806.73 2325.42 3792.07 2336.76 3777C2346.03 3764.68 2352.97 3750.7 2352.97 3735C2352.97 3722.55 2346.41 3708.65 2353.88 3697C2370.23 3671.49 2400.53 3655.57 2421.9 3634.71C2427.85 3628.9 2431.01 3619.82 2435.86 3613C2447.68 3596.4 2461.11 3579.69 2471.21 3562C2483.85 3539.86 2485.52 3511.33 2491.75 3487C2495.38 3472.81 2506.09 3461.19 2512.1 3448C2517.08 3437.07 2517.82 3424.47 2524.07 3414C2532.16 3400.48 2548.3 3394.01 2558.96 3382.99C2568.32 3373.29 2576.46 3353.73 2581.04 3341C2584.49 3331.4 2584.27 3319.12 2585.09 3309C2587.78 3275.5 2582.49 3240.96 2592.04 3208C2596.67 3192.03 2602.85 3175.84 2612.22 3162C2621.56 3148.19 2634.51 3135.82 2642.18 3121C2654.99 3096.25 2657.41 3065.33 2661.29 3038C2663.2 3024.5 2667.89 3010.65 2668 2997C2650.4 2994.41 2621.22 3008.28 2610.58 3023C2607.84 3026.78 2603.23 3031.16 2602.72 3036C2600.8 3054.18 2615.71 3074.05 2610.36 3093C2604.74 3112.91 2588.32 3128.4 2580.23 3147C2571.84 3166.28 2567.69 3186.59 2560.07 3206C2545.57 3242.95 2527.37 3278.88 2513.37 3316C2507.19 3332.37 2518.53 3357.05 2507.4 3372.9C2503.91 3377.85 2496.18 3380.85 2491 3383.69C2486.92 3385.94 2482.56 3389.21 2478 3390.32C2473.81 3391.34 2469.18 3389.62 2465 3389.17C2458.1 3388.42 2449.41 3388.4 2443 3385.58C2431.86 3380.68 2421.34 3368.68 2412 3360.92C2404.95 3355.06 2396.24 3349.44 2390.79 3342C2385.38 3334.62 2381.38 3325.94 2376.85 3318C2371.7 3308.97 2366.2 3300.13 2361.23 3291C2358.66 3286.28 2356.27 3280.16 2350.98 3278.02C2336.99 3272.34 2320.71 3274.24 2307 3268.85C2296.45 3264.71 2290.07 3252.36 2280 3246.8C2263.65 3237.76 2242.3 3234.99 2227.1 3224.79C2221.71 3221.16 2218.28 3213.45 2215 3208C2206.02 3193.1 2199.76 3179.78 2199 3162M1182 3140L1179 3151C1182.41 3152.9 1193.14 3157.83 1191.65 3162.86C1190.06 3168.25 1178 3168.5 1174.71 3175C1168.98 3186.3 1162.83 3201.52 1160.62 3214C1159.74 3218.97 1162.23 3224.19 1160.97 3229C1159.73 3233.74 1154.71 3236.9 1152.21 3241C1148.51 3247.09 1145.91 3255.14 1144.04 3262C1140.84 3273.79 1154.91 3285.59 1151.15 3298C1146.06 3314.76 1123.82 3311.08 1122.5 3329C1121.13 3347.51 1157.37 3352.99 1153.74 3372.96C1152.17 3381.61 1128.51 3378 1122 3378L1122 3379C1129.02 3380.45 1136.02 3382.22 1143 3383.88C1155.34 3386.83 1168.74 3391.21 1163.67 3406C1162.77 3408.61 1161.99 3411.39 1159.72 3413.16C1151.21 3419.78 1139.28 3417.34 1130 3421.07C1116 3426.71 1107.93 3449.61 1119.23 3461.83C1136.29 3480.28 1141.19 3440.05 1157 3445.4C1166.97 3448.77 1177.67 3454.03 1177.82 3466C1177.92 3474.23 1171 3496.01 1181.21 3500.4C1197.41 3507.35 1195.72 3470.57 1209 3468.49C1214.94 3467.55 1232.15 3469.54 1236.69 3473.56C1241.29 3477.64 1243.48 3493.18 1242.28 3499C1238.71 3516.21 1228.14 3526.87 1215 3537L1215 3538C1230.4 3553.4 1235.13 3566.15 1239 3587C1245.57 3585.07 1255.21 3574.61 1261.95 3575.88C1267.31 3576.89 1270.6 3589.6 1272.63 3594C1279.04 3607.92 1283.57 3617.69 1299 3623.18C1309.54 3626.94 1322.92 3626.85 1334 3628.17C1345.25 3629.51 1356.58 3632.46 1368 3631.96C1377.69 3631.54 1387.29 3629.1 1397 3629C1408.9 3628.88 1422.28 3634.7 1434 3632.28C1446.16 3629.76 1454.4 3621.43 1465 3615.98C1481.32 3607.59 1503.07 3602.98 1515.03 3587.67C1520.31 3580.93 1522.01 3571.43 1526.23 3564C1536.22 3546.39 1547.57 3529.66 1560.46 3514C1585.18 3483.98 1619.14 3463.42 1644.33 3433.91C1672.35 3401.1 1689.85 3362.53 1713.67 3327C1731.02 3301.12 1754.84 3275.96 1762 3245C1752.42 3243.79 1742.45 3243.35 1733 3241.33C1726.68 3239.98 1720.6 3236.72 1714 3237.18C1688.88 3238.95 1670.14 3258.56 1647 3240.65C1643.82 3238.19 1640.19 3235.87 1637.65 3232.71C1619.09 3209.6 1638.15 3175.87 1636.49 3150C1635.97 3141.95 1635.89 3129.13 1632.01 3122C1623.47 3106.29 1604.16 3096.28 1593.42 3082C1585.58 3071.58 1585.02 3056.26 1577.65 3045.1C1570.28 3033.96 1545.63 3026.59 1533 3024.39C1515.83 3021.4 1492.8 3026.73 1476 3030.5C1450.87 3036.14 1428.12 3039.03 1405 3051.64C1386.59 3061.68 1373.62 3078.31 1358 3091.7C1343.56 3104.08 1327.36 3113.33 1312.04 3124.36C1305 3129.43 1303.96 3138.54 1298.61 3144.96C1293.19 3151.45 1280.01 3156.4 1272 3158.88C1263.85 3161.4 1252.05 3155.79 1244 3153.88C1230.54 3150.69 1216.43 3150.67 1203 3147.48C1195.78 3145.76 1189.15 3141.96 1182 3140z"/>
<path style="fill:#ebe4dd; stroke:none;" d="M2585 3253L2585 3273L2586 3273L2585 3253M2512 3321L2512 3348L2513 3348L2512 3321M1122 3377L1122 3378L1151 3378L1122 3377z"/>
<path style="fill:#e5ddd4; stroke:none;" d="M1093 3447L1098 3453L1093 3447z"/>
<path style="fill:#d6c8ba; stroke:none;" d="M1509 4127C1524.82 4134.52 1537.09 4149.83 1552 4159.3C1571.81 4171.9 1596.09 4177.54 1613.96 4193.33C1620.93 4199.49 1619.11 4210.69 1625.31 4216.03C1630.33 4220.35 1637.43 4222.67 1643 4226.24C1655.69 4234.37 1670.87 4245.58 1680.7 4257C1693.18 4271.52 1697.03 4290.67 1706.34 4307C1714.33 4321.02 1726.99 4331.67 1734.69 4346C1752.43 4379.01 1763.09 4417.98 1776.42 4453C1785.69 4477.34 1794.85 4501.85 1804.6 4526C1809.43 4537.94 1817.86 4552.22 1819.53 4565C1821.33 4578.75 1809.21 4586.09 1806.3 4598C1802.64 4613.01 1805 4630.63 1805 4646C1805 4654.08 1802.72 4662 1803.04 4670C1803.86 4690.14 1824 4702.38 1827.33 4721C1829.35 4732.3 1818.01 4748.15 1824.03 4758.71C1828.03 4765.74 1843.1 4776.01 1850.94 4769.68C1859.91 4762.44 1848.9 4742.4 1858.31 4737.12C1863.63 4734.14 1879.11 4740.44 1885 4741.61C1918.28 4748.24 1951.53 4771.55 1969 4800L1970 4800C1970 4778.06 1964 4756.91 1964 4735C1964 4728.82 1962.36 4719.85 1964.6 4714.04C1969.24 4702.03 1986.55 4696.09 1994.5 4686.7C2004.68 4674.68 2008.2 4652.11 2010.56 4637C2013.85 4615.97 2010.26 4593.12 2010 4572C2009.41 4522.3 2008 4472.69 2008 4423C1969.78 4426.02 1925.37 4392.9 1914.48 4356C1912.21 4348.28 1910.98 4337.03 1911.38 4329C1911.77 4321.03 1914.03 4311.13 1909.52 4304C1896.35 4283.17 1866.84 4276.48 1875.64 4246C1880.12 4230.46 1891.32 4223.57 1903.99 4215.38C1907.98 4212.8 1915.81 4205.44 1914.57 4200C1913.37 4194.76 1906.6 4189.06 1903.25 4185C1897.1 4177.54 1890.71 4167.27 1887.7 4158C1885.53 4151.33 1887.26 4142.94 1886.96 4136C1886.54 4126.41 1884.36 4116.44 1882.68 4107C1879.29 4088 1870.47 4070.68 1869.09 4051C1868.26 4039.16 1870.1 4026.81 1870.91 4015C1871.49 4006.51 1870.5 3997.28 1872.79 3989C1878.54 3968.12 1890.73 3950.23 1900.02 3931C1904.18 3922.38 1905.66 3912.4 1910.27 3904C1922.4 3881.94 1946.41 3881.23 1967 3874.4C1978.92 3870.45 1990.33 3862.32 2002 3857.28C2008.96 3854.28 2020.1 3851.93 2025.5 3846.5C2035.36 3836.59 2033.22 3820.41 2034.09 3808C2035.39 3789.4 2041.45 3770.3 2045 3752C2038.21 3747.42 2030.88 3741.39 2023 3738.92C2017 3737.05 2005.67 3737.01 2001.6 3731.77C1997.83 3726.91 1999.07 3717.8 1997.62 3712C1994 3697.48 1985.14 3684.64 1970 3683.17C1953.54 3681.58 1945.69 3685.27 1933 3695.4C1928.36 3699.11 1917.3 3711.3 1911 3710.03C1905.95 3709.01 1901.58 3702.42 1898 3699.09C1887.08 3688.92 1877.43 3678.34 1867.73 3667C1864.11 3662.77 1859.35 3654.53 1853.91 3652.64C1840.31 3647.92 1821.66 3662.95 1813 3671.02C1809.35 3674.42 1804.03 3681.1 1799 3682.18C1794.43 3683.16 1787.92 3678.21 1784 3676.25C1773.52 3671.01 1754.8 3656.68 1743 3657.32C1728.44 3658.11 1707.42 3672.73 1698.17 3683C1691.74 3690.14 1685.11 3700.86 1676 3704.61C1666.64 3708.46 1654.01 3714.67 1644 3715.75C1630.14 3717.24 1614.94 3713.36 1601 3713.01C1594.64 3712.86 1576.51 3708.47 1572.27 3714.32C1565.37 3723.84 1565.51 3738.92 1563.12 3750C1560.25 3763.23 1551.98 3777.62 1551.27 3791C1550.11 3813.08 1555.51 3835.74 1552.82 3858C1549.08 3888.79 1529.93 3918.91 1529.02 3950C1528.75 3959.07 1527.5 3970.14 1529.53 3979C1534.56 4000.96 1545.35 4020.33 1540.62 4044C1534.89 4072.68 1513.97 4098.15 1509 4127z"/>
<path style="fill:#ffffff; stroke:none;" d="M1459.13 3673.18C1454.63 3675.13 1457.26 3682.44 1461.69 3679.91C1465.12 3677.95 1463.27 3671.38 1459.13 3673.18z"/>
<path style="fill:#e8e0d8; stroke:none;" d="M1544 3822L1544 3846L1545 3846L1544 3822z"/>
<path style="fill:#d6c8ba; stroke:none;" d="M2652 3902C2654.71 3920.34 2666.01 3942.75 2687 3943C2686.08 3931.4 2698.51 3913.52 2692.68 3903.15C2690.56 3899.38 2685.71 3899.93 2682 3900.01C2671.98 3900.26 2662.04 3902 2652 3902M1436 4313L1463 4293C1454.05 4271.95 1433.7 4300 1436 4313z"/>
<path style="fill:#ebe4dd; stroke:none;" d="M2007 4385L2007 4409L2008 4409L2007 4385M2008 4436L2008 4465L2009 4465L2008 4436M2009 4494L2009 4522L2010 4522L2009 4494M2010 4551L2010 4579L2011 4579L2010 4551M2696 4608C2716.78 4603.05 2742.64 4607 2764 4607L2747 4606L2712 4606L2696 4608z"/>
<path style="fill:#d6c8ba; stroke:none;" d="M2697 4607C2699.05 4614.12 2703.06 4620.31 2702.97 4628C2702.91 4632.66 2698.24 4638.56 2700.13 4642.91C2702.54 4648.44 2711.23 4654.33 2716 4657.84C2730.85 4668.81 2744.87 4676.72 2762 4683.4C2767.64 4685.6 2784.13 4685.23 2787.4 4678.57C2793.31 4666.49 2765.89 4655.11 2761.08 4647C2752.64 4632.74 2761.89 4621.28 2764 4607L2697 4607z"/>
<path style="fill:#ebe4dd; stroke:none;" d="M2011 4608L2011 4634L2012 4634L2011 4608z"/>
</svg>
